<mxfile host="app.diagrams.net" modified="2023-10-05T07:27:50.268Z" agent="Mozilla/5.0 (Windows NT 10.0; Win64; x64) AppleWebKit/537.36 (KHTML, like Gecko) Chrome/115.0.0.0 Safari/537.36" version="22.0.2" etag="QRCMkpK0CfJ6FTGI_XW2" type="github">
  <diagram name="Trang-1" id="H-Fuxb8mfF8rhk5f8B4V">
    <mxGraphModel>
      <root>
        <mxCell id="0" />
        <mxCell id="1" parent="0" />
      </root>
    </mxGraphModel>
  </diagram>
</mxfile>
